<svg width="1200" height="545" fill="none" xmlns="http://www.w3.org/2000/svg"><g filter="url(#filter0_i_1_1226)" fill-rule="evenodd" clip-rule="evenodd" fill="#FF2400"><path d="M-82.717 481.727c-27.576-88.395-91.02-50.452 13.384-138.699 102.237-86.414-174.356-141-20.021-204.563C50.678 80.792-138.426 37.45 21.788 7.582c162.093-30.22 312.894 41.702 467.842 50.105 176.268 9.559 665.91-95.536 779.99-14.76C1534.3 230.33 1320.82-11.78 1255 26c-89.25 51.227-363.166-2.636-548.999 45.5-235.618 61.032-575.278-88.01-705-23-134.215 67.262 75.357 80.74-91.518 109.994-168.687 29.571 180.885 499.346 29.24 478.352-149.391-20.681 34.791-12.582-69.727-66.782-109.909-56.996 74.94-2.899 48.287-88.337z"/><path d="M-82.717 481.727c-27.576-88.395-91.02-50.452 13.384-138.699 102.237-86.414-174.356-141-20.021-204.563C50.678 80.792-138.426 37.45 21.788 7.582c162.093-30.22 312.894 41.702 467.842 50.105 176.268 9.559 665.91-95.536 779.99-14.76C1534.3 230.33 1320.82-11.78 1255 26c-89.25 51.227-363.166-2.636-548.999 45.5-235.618 61.032-575.278-88.01-705-23-134.215 67.262 75.357 80.74-91.518 109.994-168.687 29.571 180.885 499.346 29.24 478.352-149.391-20.681 34.791-12.582-69.727-66.782-109.909-56.996 74.94-2.899 48.287-88.337z"/></g><defs><filter id="filter0_i_1_1226" x="-166.228" y=".211" width="1565" height="641.318" filterUnits="userSpaceOnUse" color-interpolation-filters="sRGB"><feFlood flood-opacity="0" result="BackgroundImageFix"/><feBlend in="SourceGraphic" in2="BackgroundImageFix" result="shape"/><feColorMatrix in="SourceAlpha" values="0 0 0 0 0 0 0 0 0 0 0 0 0 0 0 0 0 0 127 0" result="hardAlpha"/><feOffset dy="4"/><feGaussianBlur stdDeviation="2"/><feComposite in2="hardAlpha" operator="arithmetic" k2="-1" k3="1"/><feColorMatrix values="0 0 0 0 0.345833 0 0 0 0 0.345833 0 0 0 0 0.345833 0 0 0 0.07 0"/><feBlend in2="shape" result="effect1_innerShadow_1_1226"/></filter></defs></svg>