<svg width="20" height="20" fill="none" xmlns="http://www.w3.org/2000/svg"><g id="Group"><path id="Vector" d="M10 0C4.477 0 0 4.477 0 10s4.477 10 10 10 10-4.477 10-10S15.523 0 10 0z" fill="#FF2400"/><path id="Vector_2" d="M14.866 5.753l-1.786 9.005s-.25.624-.937.325l-4.122-3.16-1.498-.725L4 10.348s-.388-.137-.425-.436c-.038-.3.437-.462.437-.462l10.03-3.935s.824-.362.824.238z" fill="#fff"/><path id="Vector_3" d="M7.704 14.656s-.12-.01-.27-.486c-.15-.474-.912-2.972-.912-2.972L12.58 7.35s.35-.212.337 0c0 0 .063.037-.125.212-.187.175-4.758 4.284-4.758 4.284" fill="#D2E5F1"/><path id="Vector_4" d="M9.602 13.134l-1.63 1.486s-.128.097-.267.037l.312-2.761" fill="#B5CFE4"/></g></svg>