<svg width="20" height="20" fill="none" xmlns="http://www.w3.org/2000/svg"><g id="Group 415"><g id="Base"><path id="Vector" d="M6.938 0h6.135C18.677 0 20 1.333 20 6.938v6.135C20 18.677 18.667 20 13.062 20H6.928C1.323 20 0 18.667 0 13.062V6.928C0 1.333 1.333 0 6.938 0z" fill="#FF2400"/><g id="Clip path group"><mask id="mask0_1_1261" style="mask-type:luminance" maskUnits="userSpaceOnUse" x="0" y="0" width="20" height="20"><g id="SVGID_2_"><path id="Vector_2" d="M6.938 0h6.135C18.677 0 20 1.333 20 6.938v6.135C20 18.677 18.667 20 13.062 20H6.928C1.323 20 0 18.667 0 13.062V6.928C0 1.333 1.333 0 6.938 0z" fill="#fff"/></g></mask><g mask="url(#mask0_1_1261)"><path id="Vector_3" d="M-.521-.521h21.042v21.042H-.521V-.521z" fill="#FF2400"/></g></g></g><path id="Logo" fill-rule="evenodd" clip-rule="evenodd" d="M16.375 6.885c.094-.312 0-.531-.438-.531H14.48c-.375 0-.542.198-.635.417 0 0-.74 1.812-1.792 2.979-.344.344-.49.448-.677.448-.094 0-.23-.104-.23-.417V6.885c0-.375-.104-.531-.416-.531H8.437c-.229 0-.375.177-.375.333 0 .354.521.438.584 1.417v2.146c0 .469-.084.552-.271.552-.49 0-1.698-1.813-2.406-3.896-.146-.385-.282-.552-.657-.552H3.854c-.417 0-.5.198-.5.417 0 .385.49 2.302 2.302 4.833 1.208 1.73 2.906 2.667 4.448 2.667.927 0 1.042-.209 1.042-.563v-1.312c0-.417.083-.5.385-.5.219 0 .583.104 1.448.937.99.99 1.156 1.438 1.708 1.438h1.459c.416 0 .625-.209.5-.615-.136-.406-.605-1-1.23-1.708-.343-.407-.854-.834-1-1.052-.218-.282-.156-.407 0-.646 0-.01 1.782-2.51 1.959-3.365z" fill="#fff"/></g></svg>