<svg width="20" height="20" fill="none" xmlns="http://www.w3.org/2000/svg"><g id="Group 227"><path id="Vector" fill-rule="evenodd" clip-rule="evenodd" d="M17.087 2.794C15.205.994 12.705 0 10.042 0 4.554 0 .085 4.274.085 9.527a9.165 9.165 0 001.328 4.763L0 19.228 5.28 17.9a10.32 10.32 0 004.76 1.162h.002c5.489 0 9.955-4.274 9.958-9.53 0-2.545-1.035-4.938-2.913-6.739zm-7.045 14.658h-.003a8.56 8.56 0 01-4.212-1.103l-.303-.171-3.135.785.837-2.922-.195-.3a7.65 7.65 0 01-1.267-4.214c0-4.365 3.715-7.916 8.282-7.916 2.21 0 4.287.825 5.85 2.32 1.562 1.499 2.421 3.487 2.421 5.602 0 4.368-3.714 7.92-8.275 7.92zm4.538-5.932c-.247-.118-1.471-.694-1.7-.772-.227-.081-.393-.118-.559.118-.166.24-.641.776-.788.935-.143.156-.29.178-.537.06-.25-.12-1.051-.372-2.002-1.185-.739-.629-1.24-1.411-1.383-1.648-.147-.24-.017-.367.107-.486.114-.106.25-.277.374-.417.124-.137.166-.237.251-.396.081-.159.04-.299-.023-.417-.062-.119-.56-1.293-.768-1.77-.202-.464-.407-.399-.56-.408-.143-.006-.31-.006-.475-.006a.93.93 0 00-.664.299c-.228.237-.87.813-.87 1.984 0 1.172.893 2.306 1.016 2.465.124.155 1.755 2.56 4.252 3.592.592.246 1.054.392 1.416.501.595.18 1.139.156 1.569.097.478-.069 1.471-.577 1.68-1.134.204-.555.204-1.031.143-1.131-.062-.1-.228-.159-.479-.28z" fill="#FF2400"/></g></svg>